<?xml version="1.0" standalone="no"?>
<!DOCTYPE svg PUBLIC "-//W3C//DTD SVG 20010904//EN"
 "http://www.w3.org/TR/2001/REC-SVG-20010904/DTD/svg10.dtd">
<svg version="1.0" xmlns="http://www.w3.org/2000/svg"
 width="131.000000pt" height="131.000000pt" viewBox="0 0 131.000000 131.000000"
 preserveAspectRatio="xMidYMid meet">
<metadata>
Created by potrace 1.11, written by Peter Selinger 2001-2013
</metadata>
<g transform="translate(0.000000,131.000000) scale(0.100000,-0.100000)"
fill="#000000" stroke="none">
<path d="M755 1103 c-22 -9 -51 -24 -65 -33 -16 -11 -34 -14 -50 -10 -86 22
-196 -30 -241 -114 -21 -40 -27 -44 -67 -49 -30 -3 -53 -14 -75 -34 -18 -17
-40 -33 -50 -36 -24 -9 -75 18 -114 61 -18 20 -35 33 -38 31 -23 -24 -18 -227
8 -274 6 -11 9 -20 8 -20 -8 0 25 -61 36 -68 8 -5 11 -13 7 -18 -3 -5 0 -8 8
-7 8 2 12 -5 10 -17 -2 -17 -1 -17 8 -5 9 13 12 13 24 -3 8 -10 18 -18 23 -18
27 1 82 -13 77 -20 -3 -5 -1 -9 4 -9 5 0 17 -20 28 -45 10 -25 26 -48 36 -51
10 -3 18 -9 18 -13 0 -4 6 -8 13 -9 6 0 28 -5 47 -9 44 -11 87 -9 121 5 46 19
54 18 87 -10 31 -26 44 -47 20 -32 -7 5 -8 3 -3 -5 5 -9 10 -10 18 -2 7 7 15
5 24 -7 8 -9 11 -11 7 -3 -5 10 -3 12 6 6 17 -10 140 -23 134 -14 -6 10 33 22
46 14 6 -4 9 -1 8 6 -2 7 2 13 9 14 6 0 23 13 38 30 20 21 38 30 65 31 21 1
42 4 48 8 6 3 13 0 15 -6 4 -10 8 -10 15 1 6 8 19 12 31 8 12 -3 19 -1 15 4
-5 8 9 13 29 10 4 0 7 3 7 9 0 5 6 10 13 10 7 0 18 9 25 21 7 11 19 18 26 16
10 -4 12 1 9 14 -3 10 0 19 6 19 6 0 10 3 9 7 -1 5 5 22 12 38 18 44 24 158
11 211 -19 76 -68 141 -128 170 -39 20 -57 36 -73 67 -63 123 -189 177 -305
130z"/>
<path d="M775 250 c3 -5 8 -10 11 -10 2 0 4 5 4 10 0 6 -5 10 -11 10 -5 0 -7
-4 -4 -10z"/>
</g>
</svg>
